<svg xmlns="http://www.w3.org/2000/svg" width="26" height="32" viewBox="0 0 26 32"><path d="M2.048 21.84h8.219a2.51 2.51 0 002.271 1.422h.519a2.51 2.51 0 002.272-1.422h8.223c.847 0 1.536-.689 1.536-1.536V5.584c0-.847-.689-1.536-1.536-1.536h-.829v-.686c0-.565-.459-1.024-1.024-1.024H3.897c-.564 0-1.024.459-1.024 1.024v.686h-.825c-.847 0-1.536.689-1.536 1.536v14.72c0 .847.689 1.536 1.536 1.536zm19.65-3.159h-8.386V6.783a3.959 3.959 0 013.441 3.918v.462l-.122-.027a.516.516 0 00-.61.391l-.815 3.709a.511.511 0 00.39.609l1.761.388a1.308 1.308 0 001.558-1.002l.471-2.145a1.313 1.313 0 00-.997-1.562l-.613-.135v-.687a4.987 4.987 0 00-4.465-4.953V3.363h8.387l-.001 15.319zm-4.786-6.434l1.258.277a.283.283 0 01.218.341l-.471 2.145a.304.304 0 01-.341.223l-1.259-.277.596-2.708zM3.897 3.362h8.392v2.386a4.987 4.987 0 00-4.47 4.954v.687l-.614.136a1.305 1.305 0 00-.997 1.561l.471 2.143a1.316 1.316 0 001.563 1.005l1.754-.387a.512.512 0 00.389-.609l-.815-3.709a.513.513 0 00-.611-.391l-.117.026v-.461a3.958 3.958 0 013.446-3.919v11.899H3.896V3.364zm4.783 8.885l.596 2.708-1.252.277a.29.29 0 01-.344-.22l-.471-2.147c-.017-.075-.003-.151.037-.214s.106-.109.18-.126l1.254-.277zM1.536 5.584c0-.282.23-.512.512-.512h.825v13.609c0 .565.459 1.024 1.024 1.024h17.802c.564 0 1.024-.459 1.024-1.024V5.072h.829c.282 0 .512.23.512.512v14.72c0 .282-.23.512-.512.512h-8.571a.51.51 0 00-.489.362 1.492 1.492 0 01-1.434 1.06h-.519a1.498 1.498 0 01-1.437-1.066.512.512 0 00-.488-.356H2.048a.513.513 0 01-.512-.512V5.584z"/></svg>