<svg xmlns="http://www.w3.org/2000/svg" width="26" height="32" viewBox="0 0 26 32"><path d="M3.719 6.407h7.654v.573H3.719v-.573zm1.146 2.137h6.508v.573H4.865v-.573zm-1.146 2.137h7.654v.573H3.719v-.573zm1.146 2.137h6.508v.573H4.865v-.573zm-1.146 2.137h7.654v.573H3.719v-.573zm1.146 2.137h6.508v.573H4.865v-.573zm9.361-10.685h7.654v.573h-7.654v-.573zm0 2.137h6.508v.573h-6.508v-.573zm0 2.137h7.654v.573h-7.654v-.573zm0 2.137h6.508v.573h-6.508v-.573zm0 2.137h7.654v.573h-7.654v-.573zm0 2.137h6.508v.573h-6.508v-.573z"/><path d="M24.645 5.754h-1.051V4.176a.287.287 0 00-.287-.287h-8.566c-.836 0-1.561.452-1.941 1.128a2.215 2.215 0 00-1.941-1.128H2.293a.287.287 0 00-.287.287v1.578H.955a.287.287 0 00-.287.287v15.383c0 .158.128.287.287.287h23.69a.287.287 0 00.287-.287V6.041a.287.287 0 00-.287-.287zm-9.904-1.291h8.28v15.349H14.13c-.394 0-.788.166-1.043.382V6.114c0-.915.732-1.651 1.654-1.651zm-12.162 0h8.28a1.64 1.64 0 011.651 1.588c0 .012.002.051.004.063v14.079a1.675 1.675 0 00-1.039-.381H2.58V4.463zM1.242 6.328h.764v13.771c0 .158.128.287.287.287h9.182c.437 0 .859.287.994.753H1.243V6.329zm23.116 14.809H13.132c.136-.468.554-.753.998-.753h9.178a.287.287 0 00.287-.287V6.326h.764v14.81z"/></svg>