<svg xmlns="http://www.w3.org/2000/svg" width="26" height="32" viewBox="0 0 26 32"><path d="M23.727 4.675v-.002a.174.174 0 00-.018-.033l-.002-.002a.179.179 0 00-.025-.031L20.145 1.07a.176.176 0 00-.03-.024l-.007-.004c-.009-.005-.017-.01-.027-.014-.003-.001-.005-.003-.008-.003A.226.226 0 0020 1.01H4.414a.21.21 0 00-.209.209v21.573a.19.19 0 00.004.041l.005.017.007.022a.114.114 0 00.01.019l.009.017c.007.011.015.02.024.029l.002.002 1.593 1.593a.209.209 0 00.296 0l1.446-1.445 1.445 1.445c.041.041.094.061.148.061s.107-.02.148-.061l1.445-1.445 1.446 1.445a.209.209 0 00.296 0l1.445-1.445 1.445 1.445a.208.208 0 00.295 0l1.446-1.445 1.445 1.445c.041.041.094.061.148.061s.107-.02.148-.061l1.445-1.445 1.446 1.445a.208.208 0 00.295 0l1.593-1.593.008-.01.017-.021c.005-.007.008-.015.012-.022a.091.091 0 00.007-.014c.004-.009.006-.019.009-.029.001-.003.003-.006.003-.01a.202.202 0 00.004-.043V4.756a.22.22 0 00-.017-.08zm-3.521-2.952l2.823 2.823h-2.823V1.723zm3.119 20.98l-1.384 1.384-1.446-1.445a.21.21 0 00-.295 0l-1.445 1.445-1.445-1.445a.21.21 0 00-.296 0l-1.446 1.445-1.445-1.444v-.001c-.041-.041-.094-.061-.148-.061s-.107.02-.148.061l-1.445 1.445-1.446-1.445a.21.21 0 00-.296 0l-1.445 1.445-1.445-1.445a.21.21 0 00-.296 0l-1.446 1.445-1.384-1.384V1.426h15.164v3.328a.21.21 0 00.209.209h3.328v17.74z"/><path d="M6.183 3.404h6.847c.115 0 .209-.094.209-.209s-.094-.209-.209-.209H6.183a.209.209 0 100 .418zm0 1.293h10.98c.115 0 .209-.094.209-.209s-.094-.209-.209-.209H6.183a.209.209 0 100 .418zm-.209 1.161v6.77c0 .115.093.209.209.209h15.583a.21.21 0 00.209-.209v-6.77a.209.209 0 00-.209-.209H6.183a.209.209 0 00-.209.209zm4.621.209h10.961v1.799H10.595V6.067zm0 2.218h10.961v1.799H10.595V8.285zm0 2.217h10.961v1.917H10.595v-1.917zM6.392 6.067h3.785v1.799H6.392V6.067zm0 2.218h3.785v1.799H6.392V8.285zm0 2.217h3.785v1.917H6.392v-1.917zm15.374 3.276H6.183a.209.209 0 00-.209.209v6.77a.209.209 0 10.418 0v-2.126h3.785v2.126a.209.209 0 10.418 0v-2.126h10.961v2.126a.209.209 0 10.418 0v-6.77a.209.209 0 00-.208-.209zm-11.589 4.435H6.392v-1.798h3.785v1.798zm0-2.217H6.392v-1.799h3.785v1.799zm11.379 2.217H10.595v-1.798h10.961v1.798zm0-2.217H10.595v-1.799h10.961v1.799zM3.215 1.008a.21.21 0 00-.209.209V22.79c0 .115.094.209.209.209s.209-.094.209-.209V1.217a.21.21 0 00-.209-.209zm-1.15 0a.21.21 0 00-.209.209V22.79c0 .115.094.209.209.209s.209-.094.209-.209V1.217a.209.209 0 00-.209-.209z"/></svg>