<svg xmlns="http://www.w3.org/2000/svg" fill="#ff6b08" width="16" height="20" viewBox="0 0 16 20"><path d="M2.328.314a1 1 0 00-.696.326L.335 2.066c.002-.004-.005-.004-.042.048a.291.291 0 00-.044.086l-.001.002C-.28 3.884.074 5.734.936 7.494s2.238 3.444 3.817 4.826c1.579 1.382 3.361 2.463 5.059 2.999s3.346.529 4.567-.356a.294.294 0 00.037-.032c.032-.032.033-.036.028-.031l.005-.006 1.291-1.42a1.01 1.01 0 00-.067-1.42L12.61 9.268a1.01 1.01 0 00-1.42.066l-1.386 1.524c-1.125-.326-2.087-.878-3.012-1.719S5.226 7.392 4.795 6.302L6.18 4.778a1.01 1.01 0 00-.066-1.42L3.051.572a1.001 1.001 0 00-.724-.259zm.03.626a.378.378 0 01.27.1l3.063 2.786a.367.367 0 01.025.53L4.185 6.039a.312.312 0 00-.061.321l-.001-.002c.465 1.268 1.215 2.309 2.246 3.247s2.138 1.587 3.444 1.93a.316.316 0 00.313-.093l1.532-1.684a.368.368 0 01.53-.025l3.063 2.786a.368.368 0 01.025.53l-1.28 1.408c-1.002.719-2.413.759-3.993.26-1.586-.501-3.309-1.538-4.833-2.872S2.319 8.882 1.504 7.218C.697 5.571.404 3.906.848 2.439l1.251-1.375a.377.377 0 01.26-.126z"/></svg>