<svg aria-hidden="true" style="position:absolute;width:0;height:0" xmlns="http://www.w3.org/2000/svg" overflow="hidden"><defs><symbol id="icon-row-left" viewBox="0 0 20 20"><path d="M16.875 10.625a.625.625 0 000-1.25H3.125a.625.625 0 000 1.25h13.75z"/><path d="M7.174 14.933a.625.625 0 00.884-.884L4.009 10l4.049-4.049a.625.625 0 00-.884-.884L2.683 9.558a.625.625 0 000 .884l4.491 4.491z"/></symbol><symbol id="icon-row-right" viewBox="0 0 20 20"><path d="M3.125 9.375a.625.625 0 000 1.25h13.75a.625.625 0 000-1.25H3.125z"/><path d="M12.826 5.067a.625.625 0 00-.884.884L15.991 10l-4.049 4.049a.625.625 0 00.884.884l4.491-4.491a.625.625 0 000-.884l-4.491-4.491z"/></symbol></defs></svg>