<svg xmlns="http://www.w3.org/2000/svg" width="26" height="32" viewBox="0 0 26 32"><path d="M20.463 5.366c-.762.341-1.492.757-2.189 1.221-1.402.922-2.683 2.02-3.885 3.191a43.314 43.314 0 00-3.377 3.736c-.264.327-1.449 1.781-1.449 1.781l-4.925-7.38-1.859 5.153 6.66 7.943c.647-1.309 1.269-2.602 1.88-3.725.152-.286.311-.554.462-.827 0 0 .782-1.374.987-1.72a41.476 41.476 0 012.689-4.014c.979-1.279 2.044-2.499 3.251-3.572a14.6 14.6 0 011.925-1.474c.684-.435 1.41-.817 2.187-1.091-.808.159-1.597.435-2.357.777z"/></svg>