<svg xmlns="http://www.w3.org/2000/svg" width="26" height="32" viewBox="0 0 26 32"><path d="M2.211 25.028h21.198c.105-2.407-.068-6.401-1.554-8.302l-.054-.068-3.248-1.624c.071-.237.105-.454.119-.613a1.118 1.118 0 00-.079-.534c-.536-1.277-1.67-1.948-2.293-2.235.19-.381.313-.791.372-1.209a1.04 1.04 0 00.73-.749l.379-1.534a1.037 1.037 0 00-.119-.79 1.034 1.034 0 00-.233-.264c1.069-2.418-.721-4.697-.819-4.817C14.671.202 12.222.592 12.092.615c-3.535.737-4.899 3.434-4.129 6.598a1.034 1.034 0 00-.239.946l.381 1.535c.092.369.374.647.725.747.108.766.434 1.459.912 2.017v1.216c-5.072 2.586-1.858.936-5.923 2.984-.008.038-1.907 2.048-1.625 8.006l.017.364zm20.462-.764h-3.489v-1.459l2.307-5.26c1.156 1.91 1.199 5.558 1.181 6.719zm-4.762-9.908c-.135 1.54-.983 1.075-1.506 2.261-.412-.451-.536-.992-.425-1.57.2-1.063-.451-1.378-.29-2.495l.024-.026v-.004c.014-.015.142-.168.179-.216 1.38.599 2.045 1.713 2.018 2.049zm-7.405-1.211a3.938 3.938 0 002.246.704c.784 0 1.528-.227 2.166-.645.088.878.433 1.054.311 1.7-.023.12-.035.238-.043.354l-2.376 2.666-3.037-3.41.733-.381v-.988zm-.955-3.263V5.806c.37-.681.874-1.175 1.5-1.471 1.678.945 3.609 2.356 4.904 3.776-.001 1.808.005 1.813-.007 1.962l-.001.009a3.2 3.2 0 01-3.196 3.003A3.206 3.206 0 019.55 9.882zm-.473 5.002l3.732 4.19 2.506-2.812c.057.164.138.319.229.469l-2.735 3.406-4.079-5.08.346-.173zm7.642-5.617v-1.18l.285-.325c.016.598.081-.108-.285 1.506zm-4.486-7.9c.152.009 2.188-.308 3.798 1.422.063.079 1.374 1.76.847 3.599-.18-.818-.494-1.867-.991-2.368l-.543.538c.49.494.812 1.999.935 2.78-2.248-2.342-5.148-3.825-5.188-3.85-.145.09-1.373.322-2.264 2.047l-.043.082v1.267l-.112.001C8.107 4.163 9.191 2 12.232 1.366zm-3.64 6.305l.193.778v.818l-.321-1.292c-.047-.193.096-.266.128-.304zm-.562 7.734l4.778 5.951 3.233-4.026c.352.313.521.358 1.266.74l-.252-.849c-.064-.216.189-.562.341-.721a2.3 2.3 0 00.837-.77l2.638 1.319-2.454 5.595v1.619H7.2v-1.62l-2.456-5.595 3.287-1.643zm-3.903 2.14l2.308 5.258v1.459H2.948c-.018-1.161.026-4.807 1.181-6.718z"/></svg>