<svg xmlns="http://www.w3.org/2000/svg" width="26" height="32" viewBox="0 0 26 32"><path d="M1.918 10.148v2.182c0 .117.054.228.146.3a8.55 8.55 0 006.968 1.648 9.261 9.261 0 003.768.795 9.234 9.234 0 003.768-.795c2.382.481 4.919-.036 6.968-1.648a.383.383 0 00.146-.3v-2.182a.924.924 0 00-.443-.791l-2.98-1.676c.652-.827 1.138-2.005 1.222-3.015.247-1.739-1.17-3.58-3.21-3.58-.858 0-1.673.353-2.271.945-.021.021-.044.038-.064.059-.018.019-.033.042-.051.061l-.034.041c-.583-1.063-1.704-1.72-3.024-1.72-.128 0-.254.009-.379.021-.008 0-.014-.004-.022-.004-.071 0-.221.019-.301.042-.012.003-.02.012-.032.016a3.455 3.455 0 00-2.322 1.661 3.217 3.217 0 00-2.449-1.123c-3.011 0-4.347 3.554-1.97 6.612l-3.007 1.67a.918.918 0 00-.426.781zm14.643 3.29c-.065.032-.129.065-.194.095l-.001.001a8.483 8.483 0 01-3.566.775 8.503 8.503 0 01-5.143-1.717V10.38c0-.075.037-.142.079-.17l3.5-1.945c.435.37.992.641 1.568.641.555 0 1.155-.275 1.581-.65l3.457 1.942c.064.041.1.107.1.183v2.211c-.44.331-.904.612-1.382.846zm6.286-3.426a.156.156 0 01.071.136v1.994a7.693 7.693 0 01-5.191 1.525c.284-.178.594-.398.834-.586a.382.382 0 00.146-.301v-2.4a.985.985 0 00-.47-.837L16.4 8.511l.447-.247c.542.442 1.007.573 1.424.573.51 0 1.048-.25 1.447-.585l3.128 1.76zm-4.576-8.163A2.48 2.48 0 0120.599 3.5a2.853 2.853 0 01-1.724-.88.382.382 0 00-.607.065 2.837 2.837 0 01-1.963 1.356v-.002a3.7 3.7 0 00-.025-.503l-.006-.051a4.155 4.155 0 00-.094-.469 2.51 2.51 0 012.091-1.166zm-2.05 2.971a3.58 3.58 0 002.438-1.358 3.612 3.612 0 002.082.814c-.006 1.381-1.134 3.796-2.47 3.796-1.03 0-1.91-1.474-2.239-2.495a6.21 6.21 0 00.189-.758zm.078 2.874l-.683.378-.689-.387c.256-.318.49-.688.691-1.089.193.406.424.778.681 1.098zm-1.03-2.241c-.368 1.099-1.314 2.689-2.465 2.689-1.342 0-2.486-2.207-2.704-3.618.058-.014 1.872.097 3.12-1.542.634.53 1.488.881 2.32.916.01.498-.111 1.084-.271 1.555zm-2.443-4.218c2.142 0 2.55 1.843 2.583 1.882a3.18 3.18 0 01-1.975-.983.382.382 0 00-.609.066 3.138 3.138 0 01-2.759 1.557c.105-1.404 1.23-2.523 2.759-2.523zM9.984 6.588c.198.397.434.775.703 1.108l-.675.375-.699-.393c.265-.338.49-.716.67-1.09zM7.322 1.849c.867 0 1.661.44 2.103 1.166-.022.077-.082.384-.09.422a2.82 2.82 0 01-1.403-.819.383.383 0 00-.608.066 2.86 2.86 0 01-2.448 1.398 2.467 2.467 0 012.446-2.235zM4.91 4.846a3.628 3.628 0 002.807-1.384 3.565 3.565 0 001.584.741c.022.443.138.981.27 1.378-.211.647-.616 1.418-1.118 1.931l-.011.008c-.314.331-.761.554-1.113.554-1.228 0-2.189-1.933-2.419-3.227zm-2.228 5.302c0-.058.026-.107.052-.125l3.171-1.76c.19.158.234.177.272.204.373.248.715.372 1.182.372.497 0 .95-.211 1.348-.535l.068-.052.453.255-1.885 1.049a.978.978 0 00-.45.825v2.4c0 .117.054.228.146.3.244.192.56.415.834.587a7.721 7.721 0 01-5.191-1.526v-1.994z"/><path d="M24.468 16.484a1.589 1.589 0 00-1.547-.085l-4.715 2.278a1.626 1.626 0 00-1.623-1.596l-2.704.001c-1.333-1.159-3.037-1.869-4.586-1.906a194.549 194.549 0 00-3.539-.049v-.772H.382v8.874h5.372v-1.063c1.473.845 5.347 2.963 7.185 2.963.042 0 .082-.001.122-.003 3.233-.181 10.857-5.547 11.36-5.903a1.602 1.602 0 00.047-2.739zM4.99 22.465H1.146v-7.346H4.99v7.346zm19.038-3.898a.24.24 0 00-.034.021c-.079.056-7.922 5.603-10.976 5.774-.03.002-.061.002-.093.002-1.612 0-5.543-2.121-7.171-3.083V15.89c.637.003 2.001.013 3.521.049 1.415.034 2.987.71 4.204 1.807l.109.099 2.996-.001c.475 0 .862.387.862.862s-.387.862-.862.862h-5.503v.764h5.503a1.62 1.62 0 001.29-.647l5.381-2.599c.264-.129.559-.112.808.044s.391.414.391.707c0 .302-.163.58-.426.728zM12.418 9.84h.764v.709h-.764V9.84zm0 1.413h.764v.709h-.764v-.709zm0 1.413h.764v.709h-.764v-.709z"/></svg>