<svg xmlns="http://www.w3.org/2000/svg" width="26" height="32" viewBox="0 0 26 32"><path d="M23.211.668H11.366a1.4 1.4 0 00-1.398 1.398v4.903l-8.8 3.693a.287.287 0 00-.037.51l1.122.672v7.157a1.292 1.292 0 00-1.004 1.259v.69c0 .158.128.287.287.287h2.01a.287.287 0 00.287-.287v-.69c0-.614-.431-1.127-1.005-1.258v-6.815l.887.531c-.027.205-.003-.357-.013 3.332 0 1.213 3.106 1.862 6.266 1.899v5.586a1.396 1.396 0 001.397 1.397H23.21c.77 0 1.397-.627 1.397-1.397 0 .038-.002-1.183 0-21.469 0-.761-.629-1.399-1.396-1.399zM3.259 20.261v.403H1.823v-.403a.719.719 0 111.436 0zm19.952 4.096H11.366a.828.828 0 01-.684-.362.817.817 0 01-.141-.46v-1.936h13.491v1.937a.83.83 0 01-.822.822zm.822-3.331H10.541v-3.074c1.543-.018 6.27-.357 6.27-1.901-.002-2.317.004-3.257-.007-3.337l2.573-1.541a.286.286 0 00-.037-.51L10.541 6.97V4.577h13.492v16.45zm-13.778-6.878c-1.59 0-4.65.205-5.98 1.073.008-2.656-.092-2.483.235-2.708.826-.608 3.188-1.033 5.745-1.033 1.115 0 5.983.307 5.983 1.337v2.404c-1.342-.876-4.387-1.074-5.983-1.074zm.287-12.082c0-.454.37-.824.824-.824h11.845c.455 0 .822.375.822.824v1.936H10.542V2.066zm-.287 5.405l8.342 3.502-2.067 1.237c-1.099-1.09-4.734-1.301-6.275-1.301-1.543 0-5.179.212-6.275 1.302l-2.068-1.237 8.343-3.502zm-5.98 8.58c0-.464 2.054-1.329 5.98-1.329 3.928 0 5.983.866 5.983 1.329s-2.055 1.33-5.983 1.33c-3.926 0-5.98-.866-5.98-1.33z"/><path d="M17.288 22.031a.949.949 0 10.001 1.897.949.949 0 00-.001-1.897zm0 1.323a.375.375 0 110-.75.375.375 0 010 .75zM16.195 2.336h2.186v.573h-2.186v-.573z"/></svg>